<mxfile host="app.diagrams.net" modified="2022-04-06T00:52:51.707Z" agent="5.0 (Windows NT 10.0; Win64; x64) AppleWebKit/537.36 (KHTML, like Gecko) Chrome/100.0.4896.60 Safari/537.36 Edg/100.0.1185.29" etag="ViS8-GmSrr60QBSCvL9d" version="17.4.0" type="github">
  <diagram id="C5RBs43oDa-KdzZeNtuy" name="Page-1">
    <mxGraphModel dx="1296" dy="685" grid="1" gridSize="10" guides="1" tooltips="1" connect="1" arrows="1" fold="1" page="1" pageScale="1" pageWidth="827" pageHeight="1169" math="0" shadow="0">
      <root>
        <mxCell id="WIyWlLk6GJQsqaUBKTNV-0" />
        <mxCell id="WIyWlLk6GJQsqaUBKTNV-1" parent="WIyWlLk6GJQsqaUBKTNV-0" />
        <mxCell id="DGQK1ftygZGJLWH5NjNq-15" style="edgeStyle=orthogonalEdgeStyle;rounded=0;orthogonalLoop=1;jettySize=auto;html=1;entryX=0;entryY=0.5;entryDx=0;entryDy=0;" edge="1" parent="WIyWlLk6GJQsqaUBKTNV-1" source="DGQK1ftygZGJLWH5NjNq-0" target="DGQK1ftygZGJLWH5NjNq-9">
          <mxGeometry relative="1" as="geometry" />
        </mxCell>
        <mxCell id="DGQK1ftygZGJLWH5NjNq-16" style="edgeStyle=orthogonalEdgeStyle;rounded=0;orthogonalLoop=1;jettySize=auto;html=1;entryX=0;entryY=0.5;entryDx=0;entryDy=0;" edge="1" parent="WIyWlLk6GJQsqaUBKTNV-1" source="DGQK1ftygZGJLWH5NjNq-0" target="DGQK1ftygZGJLWH5NjNq-3">
          <mxGeometry relative="1" as="geometry" />
        </mxCell>
        <mxCell id="DGQK1ftygZGJLWH5NjNq-17" style="edgeStyle=orthogonalEdgeStyle;rounded=0;orthogonalLoop=1;jettySize=auto;html=1;entryX=0;entryY=0.5;entryDx=0;entryDy=0;" edge="1" parent="WIyWlLk6GJQsqaUBKTNV-1" source="DGQK1ftygZGJLWH5NjNq-0" target="DGQK1ftygZGJLWH5NjNq-2">
          <mxGeometry relative="1" as="geometry" />
        </mxCell>
        <mxCell id="DGQK1ftygZGJLWH5NjNq-18" style="edgeStyle=orthogonalEdgeStyle;rounded=0;orthogonalLoop=1;jettySize=auto;html=1;entryX=0;entryY=0.5;entryDx=0;entryDy=0;" edge="1" parent="WIyWlLk6GJQsqaUBKTNV-1" source="DGQK1ftygZGJLWH5NjNq-0" target="DGQK1ftygZGJLWH5NjNq-13">
          <mxGeometry relative="1" as="geometry" />
        </mxCell>
        <mxCell id="DGQK1ftygZGJLWH5NjNq-19" style="edgeStyle=orthogonalEdgeStyle;rounded=0;orthogonalLoop=1;jettySize=auto;html=1;entryX=0;entryY=0.5;entryDx=0;entryDy=0;" edge="1" parent="WIyWlLk6GJQsqaUBKTNV-1" source="DGQK1ftygZGJLWH5NjNq-0" target="DGQK1ftygZGJLWH5NjNq-1">
          <mxGeometry relative="1" as="geometry" />
        </mxCell>
        <mxCell id="DGQK1ftygZGJLWH5NjNq-20" style="edgeStyle=orthogonalEdgeStyle;rounded=0;orthogonalLoop=1;jettySize=auto;html=1;entryX=0;entryY=0.5;entryDx=0;entryDy=0;" edge="1" parent="WIyWlLk6GJQsqaUBKTNV-1" source="DGQK1ftygZGJLWH5NjNq-0" target="DGQK1ftygZGJLWH5NjNq-14">
          <mxGeometry relative="1" as="geometry" />
        </mxCell>
        <mxCell id="DGQK1ftygZGJLWH5NjNq-21" style="edgeStyle=orthogonalEdgeStyle;rounded=0;orthogonalLoop=1;jettySize=auto;html=1;entryX=0;entryY=0.5;entryDx=0;entryDy=0;" edge="1" parent="WIyWlLk6GJQsqaUBKTNV-1" source="DGQK1ftygZGJLWH5NjNq-0" target="DGQK1ftygZGJLWH5NjNq-4">
          <mxGeometry relative="1" as="geometry" />
        </mxCell>
        <mxCell id="DGQK1ftygZGJLWH5NjNq-0" value="Landing Page" style="rounded=1;whiteSpace=wrap;html=1;fillColor=#1ba1e2;strokeColor=#006EAF;fontColor=#ffffff;" vertex="1" parent="WIyWlLk6GJQsqaUBKTNV-1">
          <mxGeometry x="40" y="40" width="160" height="80" as="geometry" />
        </mxCell>
        <mxCell id="DGQK1ftygZGJLWH5NjNq-1" value="Staff" style="rounded=1;whiteSpace=wrap;html=1;fillColor=#dae8fc;strokeColor=#6c8ebf;" vertex="1" parent="WIyWlLk6GJQsqaUBKTNV-1">
          <mxGeometry x="160" y="480" width="120" height="40" as="geometry" />
        </mxCell>
        <mxCell id="DGQK1ftygZGJLWH5NjNq-2" value="About" style="rounded=1;whiteSpace=wrap;html=1;fillColor=#dae8fc;strokeColor=#6c8ebf;" vertex="1" parent="WIyWlLk6GJQsqaUBKTNV-1">
          <mxGeometry x="160" y="320" width="120" height="40" as="geometry" />
        </mxCell>
        <mxCell id="DGQK1ftygZGJLWH5NjNq-3" value="Modalidades" style="rounded=1;whiteSpace=wrap;html=1;fillColor=#dae8fc;strokeColor=#6c8ebf;" vertex="1" parent="WIyWlLk6GJQsqaUBKTNV-1">
          <mxGeometry x="160" y="240" width="120" height="40" as="geometry" />
        </mxCell>
        <mxCell id="DGQK1ftygZGJLWH5NjNq-22" style="edgeStyle=orthogonalEdgeStyle;rounded=0;orthogonalLoop=1;jettySize=auto;html=1;entryX=0;entryY=0.5;entryDx=0;entryDy=0;" edge="1" parent="WIyWlLk6GJQsqaUBKTNV-1" source="DGQK1ftygZGJLWH5NjNq-4" target="DGQK1ftygZGJLWH5NjNq-5">
          <mxGeometry relative="1" as="geometry" />
        </mxCell>
        <mxCell id="DGQK1ftygZGJLWH5NjNq-23" style="edgeStyle=orthogonalEdgeStyle;rounded=0;orthogonalLoop=1;jettySize=auto;html=1;entryX=0;entryY=0.5;entryDx=0;entryDy=0;" edge="1" parent="WIyWlLk6GJQsqaUBKTNV-1" source="DGQK1ftygZGJLWH5NjNq-4" target="DGQK1ftygZGJLWH5NjNq-6">
          <mxGeometry relative="1" as="geometry" />
        </mxCell>
        <mxCell id="DGQK1ftygZGJLWH5NjNq-24" style="edgeStyle=orthogonalEdgeStyle;rounded=0;orthogonalLoop=1;jettySize=auto;html=1;entryX=0;entryY=0.5;entryDx=0;entryDy=0;" edge="1" parent="WIyWlLk6GJQsqaUBKTNV-1" source="DGQK1ftygZGJLWH5NjNq-4" target="DGQK1ftygZGJLWH5NjNq-7">
          <mxGeometry relative="1" as="geometry" />
        </mxCell>
        <mxCell id="DGQK1ftygZGJLWH5NjNq-25" style="edgeStyle=orthogonalEdgeStyle;rounded=0;orthogonalLoop=1;jettySize=auto;html=1;entryX=0;entryY=0.5;entryDx=0;entryDy=0;" edge="1" parent="WIyWlLk6GJQsqaUBKTNV-1" source="DGQK1ftygZGJLWH5NjNq-4" target="DGQK1ftygZGJLWH5NjNq-8">
          <mxGeometry relative="1" as="geometry" />
        </mxCell>
        <mxCell id="DGQK1ftygZGJLWH5NjNq-4" value="External" style="rounded=1;whiteSpace=wrap;html=1;fillColor=#60a917;strokeColor=#2D7600;fontColor=#ffffff;" vertex="1" parent="WIyWlLk6GJQsqaUBKTNV-1">
          <mxGeometry x="440" y="40" width="160" height="80" as="geometry" />
        </mxCell>
        <mxCell id="DGQK1ftygZGJLWH5NjNq-5" value="Twitter" style="rounded=1;whiteSpace=wrap;html=1;fillColor=#d5e8d4;strokeColor=#82b366;" vertex="1" parent="WIyWlLk6GJQsqaUBKTNV-1">
          <mxGeometry x="560" y="160" width="120" height="40" as="geometry" />
        </mxCell>
        <mxCell id="DGQK1ftygZGJLWH5NjNq-6" value="Foro" style="rounded=1;whiteSpace=wrap;html=1;fillColor=#d5e8d4;strokeColor=#82b366;" vertex="1" parent="WIyWlLk6GJQsqaUBKTNV-1">
          <mxGeometry x="560" y="240" width="120" height="40" as="geometry" />
        </mxCell>
        <mxCell id="DGQK1ftygZGJLWH5NjNq-7" value="Discord" style="rounded=1;whiteSpace=wrap;html=1;fillColor=#d5e8d4;strokeColor=#82b366;" vertex="1" parent="WIyWlLk6GJQsqaUBKTNV-1">
          <mxGeometry x="560" y="320" width="120" height="40" as="geometry" />
        </mxCell>
        <mxCell id="DGQK1ftygZGJLWH5NjNq-8" value="Tienda" style="rounded=1;whiteSpace=wrap;html=1;fillColor=#d5e8d4;strokeColor=#82b366;" vertex="1" parent="WIyWlLk6GJQsqaUBKTNV-1">
          <mxGeometry x="560" y="400" width="120" height="40" as="geometry" />
        </mxCell>
        <mxCell id="DGQK1ftygZGJLWH5NjNq-9" value="Landing View" style="rounded=1;whiteSpace=wrap;html=1;fillColor=#dae8fc;strokeColor=#6c8ebf;" vertex="1" parent="WIyWlLk6GJQsqaUBKTNV-1">
          <mxGeometry x="160" y="160" width="120" height="40" as="geometry" />
        </mxCell>
        <mxCell id="DGQK1ftygZGJLWH5NjNq-10" style="edgeStyle=orthogonalEdgeStyle;rounded=0;orthogonalLoop=1;jettySize=auto;html=1;exitX=1;exitY=0.5;exitDx=0;exitDy=0;entryX=1;entryY=0.25;entryDx=0;entryDy=0;fillColor=#dae8fc;strokeColor=#6c8ebf;" edge="1" parent="WIyWlLk6GJQsqaUBKTNV-1" source="DGQK1ftygZGJLWH5NjNq-2" target="DGQK1ftygZGJLWH5NjNq-2">
          <mxGeometry relative="1" as="geometry" />
        </mxCell>
        <mxCell id="DGQK1ftygZGJLWH5NjNq-13" value="FAQ" style="rounded=1;whiteSpace=wrap;html=1;fillColor=#dae8fc;strokeColor=#6c8ebf;" vertex="1" parent="WIyWlLk6GJQsqaUBKTNV-1">
          <mxGeometry x="160" y="400" width="120" height="40" as="geometry" />
        </mxCell>
        <mxCell id="DGQK1ftygZGJLWH5NjNq-14" value="Footer" style="rounded=1;whiteSpace=wrap;html=1;fillColor=#dae8fc;strokeColor=#6c8ebf;" vertex="1" parent="WIyWlLk6GJQsqaUBKTNV-1">
          <mxGeometry x="160" y="564.5" width="120" height="40" as="geometry" />
        </mxCell>
      </root>
    </mxGraphModel>
  </diagram>
</mxfile>
